<svg version="1.1" id="Layer_1" xmlns="http://www.w3.org/2000/svg" xmlns:xlink="http://www.w3.org/1999/xlink" x="0px" y="0px"
	 width="100%" viewBox="0 0 517 363" enable-background="new 0 0 517 363" xml:space="preserve">
<path fill="#FD3F3F" opacity="1.000000" stroke="none" 
	d="
M313.000000,364.000000 
	C208.696152,364.000000 104.892288,364.000000 1.044217,364.000000 
	C1.044217,243.063843 1.044217,122.127663 1.044217,1.095744 
	C173.220535,1.095744 345.441132,1.095744 517.830872,1.095744 
	C517.830872,121.999809 517.830872,242.999878 517.830872,364.000000 
	C449.794312,364.000000 381.647156,364.000000 313.000000,364.000000 
M275.779785,236.093796 
	C300.129333,235.095673 323.236755,229.055542 344.576660,217.430649 
	C399.074371,187.743042 431.436584,142.218475 440.531036,80.630257 
	C441.800720,72.031815 441.707855,63.232170 442.272430,54.093479 
	C437.330078,54.603012 433.604919,54.987061 429.918701,55.367096 
	C432.820526,142.535324 361.139160,214.992233 285.755249,222.959457 
	C241.156693,227.673035 200.411865,218.980087 164.162460,191.729553 
	C128.241104,164.725632 106.628647,128.779800 97.027718,84.893089 
	C93.163780,85.313797 89.413078,85.722176 85.649895,86.131920 
	C96.570518,161.270477 170.305206,244.164337 275.779785,236.093796 
M290.086548,53.360428 
	C287.831726,38.173454 275.346985,29.748259 264.213531,28.803356 
	C247.928131,27.421206 233.243164,40.643356 233.410629,57.181660 
	C233.569061,72.827965 244.899078,85.959816 262.696960,85.575714 
	C279.444366,85.214279 291.606750,71.934425 290.086548,53.360428 
M364.194763,29.208445 
	C349.495972,27.146648 337.061920,34.067318 332.052063,47.098770 
	C327.393311,59.216911 331.361938,73.117615 342.204681,80.260674 
	C354.410919,88.301949 366.022552,87.902832 377.585175,78.149178 
	C385.299591,71.641655 388.531067,62.711105 386.581909,52.519093 
	C384.256592,40.359940 376.666779,32.926422 364.194763,29.208445 
M148.112091,79.419647 
	C165.973145,93.069870 187.508926,82.423935 192.757751,65.866150 
	C197.157669,51.986317 190.639999,37.652573 177.309311,31.402916 
	C164.302628,25.305159 149.589447,29.732826 141.593735,42.150890 
	C133.837646,54.196831 136.267746,69.168167 148.112091,79.419647 
M279.576996,278.017944 
	C277.732758,281.558258 275.888489,285.098572 274.044250,288.638855 
	C273.617676,288.509003 273.191132,288.379150 272.764557,288.249298 
	C272.764557,279.547852 272.764557,270.846405 272.764557,262.270996 
	C269.085724,262.270996 265.985809,262.270996 262.739075,262.270996 
	C262.739075,285.273651 262.739075,307.983276 262.739075,330.630920 
	C266.317322,330.630920 269.541748,330.630920 272.606171,330.630920 
	C274.465149,320.949280 269.822906,310.555084 277.731873,301.796356 
	C280.201202,308.953827 282.539398,315.687164 284.847076,322.430908 
	C287.879547,331.292786 287.869385,331.301208 297.049927,330.972443 
	C297.503448,330.956238 297.949310,330.726501 298.772003,330.487915 
	C294.905579,319.423462 291.395844,308.333313 287.114502,297.549500 
	C284.819214,291.768219 285.008362,287.016449 288.292023,281.706818 
	C292.070007,275.597839 295.030945,268.983643 298.493683,262.305542 
	C287.929749,261.466187 287.929047,261.465851 283.730927,269.786591 
	C282.458069,272.309418 281.190125,274.834656 279.576996,278.017944 
M241.943405,304.738220 
	C241.943405,313.347260 241.943405,321.956299 241.943405,330.763702 
	C245.599487,330.763702 248.679749,330.763702 251.983551,330.763702 
	C251.983551,307.816864 251.983551,285.110870 251.983551,262.259369 
	C248.592209,262.259369 245.513885,262.259369 241.864929,262.259369 
	C241.864929,271.903320 241.864929,281.299194 241.864929,290.843536 
	C237.518463,290.843536 233.748032,290.843536 229.384125,290.843536 
	C229.384125,281.235809 229.384125,271.837128 229.384125,262.407837 
	C225.579636,262.407837 222.383591,262.407837 219.295319,262.407837 
	C219.295319,285.411987 219.295319,308.003296 219.295319,330.754395 
	C222.679611,330.754395 225.763977,330.754395 229.371048,330.754395 
	C229.371048,325.732239 229.371048,320.946808 229.371048,316.161346 
	C229.371048,311.210175 229.371048,306.259003 229.371048,301.007812 
	C233.018127,301.007812 236.035477,300.763947 238.975113,301.135284 
	C240.057266,301.271942 240.955978,302.860992 241.943405,304.738220 
z"/>
<path fill="#FFFAFA" opacity="1.000000" stroke="none" 
	d="
M275.313049,236.115601 
	C170.305206,244.164337 96.570518,161.270477 85.649895,86.131920 
	C89.413078,85.722176 93.163780,85.313797 97.027718,84.893089 
	C106.628647,128.779800 128.241104,164.725632 164.162460,191.729553 
	C200.411865,218.980087 241.156693,227.673035 285.755249,222.959457 
	C361.139160,214.992233 432.820526,142.535324 429.918701,55.367096 
	C433.604919,54.987061 437.330078,54.603012 442.272430,54.093479 
	C441.707855,63.232170 441.800720,72.031815 440.531036,80.630257 
	C431.436584,142.218475 399.074371,187.743042 344.576660,217.430649 
	C323.236755,229.055542 300.129333,235.095673 275.313049,236.115601 
z"/>
<path fill="#FFFBFB" opacity="1.000000" stroke="none" 
	d="
M290.158569,53.766815 
	C291.606750,71.934425 279.444366,85.214279 262.696960,85.575714 
	C244.899078,85.959816 233.569061,72.827965 233.410629,57.181660 
	C233.243164,40.643356 247.928131,27.421206 264.213531,28.803356 
	C275.346985,29.748259 287.831726,38.173454 290.158569,53.766815 
M256.936371,47.040051 
	C252.590637,49.697548 250.084763,53.391460 250.908859,58.648079 
	C251.608612,63.111515 254.220993,66.266525 258.511932,67.717125 
	C263.158325,69.287888 267.980652,67.596046 270.943573,63.656265 
	C273.885345,59.744637 273.905487,54.893532 270.997711,50.612450 
	C268.189514,46.477978 263.835724,45.224957 256.936371,47.040051 
z"/>
<path fill="#FFFBFB" opacity="1.000000" stroke="none" 
	d="
M364.577698,29.331982 
	C376.666779,32.926422 384.256592,40.359940 386.581909,52.519093 
	C388.531067,62.711105 385.299591,71.641655 377.585175,78.149178 
	C366.022552,87.902832 354.410919,88.301949 342.204681,80.260674 
	C331.361938,73.117615 327.393311,59.216911 332.052063,47.098770 
	C337.061920,34.067318 349.495972,27.146648 364.577698,29.331982 
M353.835754,46.931709 
	C349.418762,49.434059 346.817200,53.102539 347.480042,58.289299 
	C348.040802,62.677303 350.485718,66.014351 354.750458,67.607620 
	C359.529724,69.393112 364.452179,67.832321 367.569702,63.690578 
	C370.613373,59.646889 370.657196,55.443256 368.023987,51.182011 
	C365.186798,46.590714 360.884674,45.171993 353.835754,46.931709 
z"/>
<path fill="#FFFBFB" opacity="1.000000" stroke="none" 
	d="
M147.839767,79.186630 
	C136.267746,69.168167 133.837646,54.196831 141.593735,42.150890 
	C149.589447,29.732826 164.302628,25.305159 177.309311,31.402916 
	C190.639999,37.652573 197.157669,51.986317 192.757751,65.866150 
	C187.508926,82.423935 165.973145,93.069870 147.839767,79.186630 
M154.842361,54.387688 
	C154.048080,61.085751 156.912979,66.195557 162.346085,67.771255 
	C167.825165,69.360291 173.146896,67.079636 175.793610,62.008236 
	C178.471329,56.877487 176.070938,49.656769 170.833069,47.086052 
	C164.773346,44.111973 158.485077,46.728703 154.842361,54.387688 
z"/>
<path fill="#FFF7F7" opacity="1.000000" stroke="none" 
	d="
M279.748474,277.688354 
	C281.190125,274.834656 282.458069,272.309418 283.730927,269.786591 
	C287.929047,261.465851 287.929749,261.466187 298.493683,262.305542 
	C295.030945,268.983643 292.070007,275.597839 288.292023,281.706818 
	C285.008362,287.016449 284.819214,291.768219 287.114502,297.549500 
	C291.395844,308.333313 294.905579,319.423462 298.772003,330.487915 
	C297.949310,330.726501 297.503448,330.956238 297.049927,330.972443 
	C287.869385,331.301208 287.879547,331.292786 284.847076,322.430908 
	C282.539398,315.687164 280.201202,308.953827 277.731873,301.796356 
	C269.822906,310.555084 274.465149,320.949280 272.606171,330.630920 
	C269.541748,330.630920 266.317322,330.630920 262.739075,330.630920 
	C262.739075,307.983276 262.739075,285.273651 262.739075,262.270996 
	C265.985809,262.270996 269.085724,262.270996 272.764557,262.270996 
	C272.764557,270.846405 272.764557,279.547852 272.764557,288.249298 
	C273.191132,288.379150 273.617676,288.509003 274.044250,288.638855 
	C275.888489,285.098572 277.732758,281.558258 279.748474,277.688354 
z"/>
<path fill="#FFFDFD" opacity="1.000000" stroke="none" 
	d="
M241.940887,304.262878 
	C240.955978,302.860992 240.057266,301.271942 238.975113,301.135284 
	C236.035477,300.763947 233.018127,301.007812 229.371048,301.007812 
	C229.371048,306.259003 229.371048,311.210175 229.371048,316.161346 
	C229.371048,320.946808 229.371048,325.732239 229.371048,330.754395 
	C225.763977,330.754395 222.679611,330.754395 219.295319,330.754395 
	C219.295319,308.003296 219.295319,285.411987 219.295319,262.407837 
	C222.383591,262.407837 225.579636,262.407837 229.384125,262.407837 
	C229.384125,271.837128 229.384125,281.235809 229.384125,290.843536 
	C233.748032,290.843536 237.518463,290.843536 241.864929,290.843536 
	C241.864929,281.299194 241.864929,271.903320 241.864929,262.259369 
	C245.513885,262.259369 248.592209,262.259369 251.983551,262.259369 
	C251.983551,285.110870 251.983551,307.816864 251.983551,330.763702 
	C248.679749,330.763702 245.599487,330.763702 241.943405,330.763702 
	C241.943405,321.956299 241.943405,313.347260 241.940887,304.262878 
z"/>
<path fill="#FD4343" opacity="1.000000" stroke="none" 
	d="
M257.312134,46.910969 
	C263.835724,45.224957 268.189514,46.477978 270.997711,50.612450 
	C273.905487,54.893532 273.885345,59.744637 270.943573,63.656265 
	C267.980652,67.596046 263.158325,69.287888 258.511932,67.717125 
	C254.220993,66.266525 251.608612,63.111515 250.908859,58.648079 
	C250.084763,53.391460 252.590637,49.697548 257.312134,46.910969 
z"/>
<path fill="#FD4646" opacity="1.000000" stroke="none" 
	d="
M354.214172,46.822205 
	C360.884674,45.171993 365.186798,46.590714 368.023987,51.182011 
	C370.657196,55.443256 370.613373,59.646889 367.569702,63.690578 
	C364.452179,67.832321 359.529724,69.393112 354.750458,67.607620 
	C350.485718,66.014351 348.040802,62.677303 347.480042,58.289299 
	C346.817200,53.102539 349.418762,49.434059 354.214172,46.822205 
z"/>
<path fill="#FD4545" opacity="1.000000" stroke="none" 
	d="
M154.942810,54.022171 
	C158.485077,46.728703 164.773346,44.111973 170.833069,47.086052 
	C176.070938,49.656769 178.471329,56.877487 175.793610,62.008236 
	C173.146896,67.079636 167.825165,69.360291 162.346085,67.771255 
	C156.912979,66.195557 154.048080,61.085751 154.942810,54.022171 
z"/>
</svg>